<svg xmlns="http://www.w3.org/2000/svg" viewBox="0 0 32.9 43.44"><defs><style>.cls-1{fill:#4b505c;}</style></defs><g id="Layer_2" data-name="Layer 2"><g id="Body_3" data-name="Body 3"><g id="Design"><g id="Shape"><path class="cls-1" d="M2.63,2.53a.79.79,0,0,0,0,1.58A.79.79,0,0,0,2.63,2.53Zm4.25-.12a.31.31,0,0,0,0-.61A.31.31,0,0,0,6.88,2.41ZM5.06,5.86a.51.51,0,0,0,0,1A.51.51,0,0,0,5.06,5.86ZM.82,6.74a.85.85,0,0,0,0,1.69A.85.85,0,0,0,.82,6.74ZM3.24,0a.89.89,0,0,0,0,1.78A.89.89,0,0,0,3.24,0ZM6.88,5.05a.71.71,0,0,0,0,1.42A.71.71,0,0,0,6.88,5.05ZM5.67,9.3a.72.72,0,0,0,0,1.43A.72.72,0,0,0,5.67,9.3Zm4.47.11a.24.24,0,0,0-.23-.23H9.3a.23.23,0,0,0,0,.45h.61A.23.23,0,0,0,10.14,9.41Zm.38,1.7a.73.73,0,0,0,0,1.46A.73.73,0,0,0,10.52,11.11Zm2.91,3.29-.14-.11a.71.71,0,0,0-.35-.1l-.6,0a.58.58,0,0,0-.29.06.57.57,0,0,0-.23.15.61.61,0,0,0-.15.24.46.46,0,0,0-.06.28l0,.2a.8.8,0,0,0,.19.32l.15.12a.76.76,0,0,0,.37.1l.6,0a.6.6,0,0,0,.27-.06.6.6,0,0,0,.36-.36.6.6,0,0,0,.06-.27l0-.18A.64.64,0,0,0,13.43,14.4ZM14.76,16a.15.15,0,0,0,0,.3A.15.15,0,0,0,14.76,16Zm3,.88a.49.49,0,0,0,0,1A.49.49,0,0,0,17.79,16.83Zm3,2.85a.68.68,0,0,0,0,1.35A.68.68,0,0,0,20.83,19.68Zm4.24,4.87a.68.68,0,0,0,0,1.35A.68.68,0,0,0,25.07,24.55Zm5.46,9a.83.83,0,0,0,0,1.65A.83.83,0,0,0,30.53,33.52ZM28.71,39a.79.79,0,0,0,0,1.58A.79.79,0,0,0,28.71,39Zm3.55,2.53.11-.15a.71.71,0,0,0,.1-.37l0-.61a.59.59,0,0,0-.07-.29.49.49,0,0,0-.16-.24.45.45,0,0,0-.24-.16.57.57,0,0,0-.29-.07l-.2,0a.7.7,0,0,0-.33.2l-.12.15a.72.72,0,0,0-.1.38c0,.2,0,.41,0,.61a.67.67,0,0,0,.06.28.63.63,0,0,0,.39.39.55.55,0,0,0,.28.06l.2,0A.8.8,0,0,0,32.26,41.56Zm.09.73a.58.58,0,0,0,0,1.15A.58.58,0,0,0,32.35,42.29Z"/></g></g></g></g></svg>